<svg xmlns="http://www.w3.org/2000/svg" xmlns:xlink="http://www.w3.org/1999/xlink" viewBox="0 0 4.233 4.233" height="16" width="16"><defs><linearGradient y2="561.328" x2="-380.217" y1="561.328" x1="-502.602" gradientTransform="matrix(-.49895 0 0 .49895 -667.654 534.747)" gradientUnits="userSpaceOnUse" id="b" xlink:href="#a"/><linearGradient id="a"><stop offset="0" stop-color="#adc93b"/><stop offset="1" stop-color="#779400"/></linearGradient><linearGradient y2="182.952" x2="-69.31" y1="182.952" x1="-101.819" gradientTransform="translate(-227.168 534.747) scale(1.88581)" gradientUnits="userSpaceOnUse" id="c" xlink:href="#a"/></defs><g style="line-height:1.25;-inkscape-font-specification:'Manjari, Normal';font-variant-ligatures:normal;font-variant-caps:normal;font-variant-numeric:normal;font-feature-settings:normal;text-align:start" font-weight="400" font-size="99.423" font-family="Manjari" letter-spacing="0" word-spacing="0" stroke-width="2.486"><path d="M3.527.053c-.07 0-.14.04-.182.099L.668 3.82a.208.208 0 0 0-.036.117c0 .098.081.213.21.213.078 0 .132-.042.174-.095L3.693.387a.218.218 0 0 0 .036-.12c0-.09-.078-.214-.202-.214z" style="-inkscape-font-specification:'Manjari, Normal';font-variant-ligatures:normal;font-variant-caps:normal;font-variant-numeric:normal;font-feature-settings:normal;text-align:start" fill="#abc837"/><path d="M-447.731 784.247c18.676 0 30.852 14.098 30.852 31.95 0 16.296-14.281 29.205-30.669 29.205-17.028 0-30.395-13.55-30.395-30.486 0-16.57 13.184-30.669 30.212-30.669zm.274 12.817c-9.704 0-17.67 8.24-17.67 17.669 0 10.162 7.6 17.943 17.853 17.943 9.704 0 17.67-8.422 17.67-17.76 0-9.43-8.057-17.852-17.853-17.852z" style="-inkscape-font-specification:'Manjari, Normal';font-variant-ligatures:normal;font-variant-caps:normal;font-variant-numeric:normal;font-feature-settings:normal;text-align:start" fill="url(#b)" transform="translate(14.911 -23.697) scale(.03062)"/><path d="M-368.137 856.863c-14.104-12.242-32.54-9.577-44.243 3.905-10.622 12.237-8.418 31.486 3.957 42.227 12.86 11.163 31.835 9.692 42.937-3.098 10.862-12.514 10.209-31.872-2.65-43.034zm-8.67 9.568c7.26 6.301 8.004 17.736 1.822 24.857-6.661 7.674-17.5 8.57-25.244 1.849-7.328-6.362-7.823-17.943-1.701-24.995 6.181-7.122 17.726-8.132 25.124-1.71z" style="-inkscape-font-specification:'Manjari, Normal';font-variant-ligatures:normal;font-variant-caps:normal;font-variant-numeric:normal;font-feature-settings:normal;text-align:start" fill="url(#c)" transform="translate(14.911 -23.697) scale(.03062)"/></g></svg>